<svg width="29" height="28" viewBox="0 0 29 28" fill="none" xmlns="http://www.w3.org/2000/svg">
<g id="Icon / Home">
<path id="Vector" d="M14.3939 2.87415C14.434 2.83155 14.4746 2.82122 14.5 2.82122C14.5254 2.82122 14.5659 2.83155 14.6061 2.87415L24.7614 13.6518C25.1115 14.0234 25.3142 14.5328 25.3142 15.0764V23.451C25.3142 23.9685 24.9276 24.3038 24.5598 24.3038H18.7371C18.38 24.3038 18.004 23.9798 18.004 23.4735V18.4082C18.004 16.4326 16.4815 14.7418 14.5 14.7418C12.5185 14.7418 10.996 16.4326 10.996 18.4082V23.4735C10.996 23.9798 10.62 24.3038 10.2629 24.3038H4.44013C4.07239 24.3038 3.68578 23.9685 3.68578 23.451V15.0764C3.68578 14.5328 3.88846 14.0234 4.23859 13.6518L14.3939 2.87415Z" stroke="url(#paint0_linear_577_1987)" stroke-width="1.70493"/>
</g>
<defs>
<linearGradient id="paint0_linear_577_1987" x1="4.40831" y1="25.1563" x2="25.6452" y2="24.7169" gradientUnits="userSpaceOnUse">
<stop stop-color="#E86B02"/>
<stop offset="0.778839" stop-color="#FA9541"/>
</linearGradient>
</defs>
</svg>
